# xmcd CD database file generated by LOLA_Freedb v0.9beta0
# 
# Track frame offsets:
#      182
#      22187
#      40732
#      57732
#      73880
#      91927
#      113750
#      138777
#      153767
#      174917
#      196232
#      219032
#      243307
#      264172
#      276600
#      289727
# 
# Disc length: 4156 seconds
# 
# Revision: 0 
# Processed by: cddbd v1.5.2PL0 Copyright (c) Steve Scherf et al.
# Submitted via: LOLA_Freedb v0.9beta0
# 
DISCID=e2103a10
DTITLE=Various Artist - Moments Of Love CD.10 [CDBox]
DYEAR=1992
DGENRE=
TTITLE0=Roxette - Queen Of Rain
TTITLE1=Richard Marx - Angelia
TTITLE2=Roxy Music - Dance Away
TTITLE3=Charade - The Colour Of Your Eyes
TTITLE4=Jon Secada - Do You Believe In Us
TTITLE5=Foreigner - Waiting For A Girl Like You
TTITLE6=Wilson Phillips - Flesh And Blood
TTITLE7=Chris Rea - The Mention Of Your Name
TTITLE8=Joe Cocker - Feels Like Forever
TTITLE9=Jody Watley - Stolen Moments
TTITLE10=Randy Crawford - One Day I'll Fly Away
TTITLE11=Daryl Hall and John Oates - Every Time You Go Away
TTITLE12=Fleetwood Mac - Sara
TTITLE13=Curtis Mayfield - I've Been Trying
TTITLE14=Dr. Hook and The Medicine Show - Sharing The Night Together
TTITLE15=Eurythmics - Sweet Dreams {Are Made Of This}
EXTD=
EXTT0=
EXTT1=
EXTT2=
EXTT3=
EXTT4=
EXTT5=
EXTT6=
EXTT7=
EXTT8=
EXTT9=
EXTT10=
EXTT11=
EXTT12=
EXTT13=
EXTT14=
EXTT15=
PLAYORDER=
